<svg width="52" height="92" viewBox="0 0 52 92" fill="none" xmlns="http://www.w3.org/2000/svg">
<path d="M31.8709 84.5932L21.1545 84.5362C20.3565 84.5362 19.7295 83.9092 19.7295 83.1112C19.7295 82.3131 20.3565 81.6861 21.1545 81.6861L31.8709 81.7431C32.6689 81.7431 33.296 82.3701 33.296 83.1682C33.296 83.9662 32.6689 84.5932 31.8709 84.5932Z" fill="#FBECF5"/>
<path d="M29.1348 91.8895L23.8906 91.8325C23.0926 91.8325 22.4656 91.1484 22.4656 90.4074C22.4656 89.6094 23.0926 88.9824 23.8906 88.9824L29.1348 89.0394C29.9328 89.0394 30.5599 89.7234 30.5599 90.4644C30.5599 91.2624 29.9328 91.8895 29.1348 91.8895Z" fill="#FBECF5"/>
<path d="M31.8708 75.7579H20.0714L18.0193 68.9176C14.7702 58.2013 9.35504 48.5109 3.93985 39.6756C-1.19033 31.2393 -1.13334 20.8649 4.16785 12.4856C11.7491 0.629205 27.6527 -2.96192 39.6231 4.61935C45.5513 8.38148 49.6555 14.6517 50.9095 21.891C52.1635 29.1872 50.4535 36.4835 46.1213 42.0697C45.6653 42.6967 44.7533 42.8107 44.1263 42.2977C43.4992 41.8417 43.3852 40.9296 43.8983 40.3026C47.7174 35.4004 49.2565 28.8452 48.1164 22.404C46.9764 15.9627 43.3282 10.3766 38.084 7.01343C27.4247 0.287193 13.3452 3.4223 6.56194 14.0247C1.88777 21.4349 1.77376 30.6693 6.39093 38.1935C11.9201 47.1999 17.4493 57.0042 20.7554 68.0626L22.1805 72.8508H31.8708C32.6689 72.8508 33.2959 73.4778 33.2959 74.2758C33.2959 75.0739 32.6689 75.7579 31.8708 75.7579Z" fill="#FBECF5"/>
</svg>
