<svg width="103" height="68" viewBox="0 0 103 68" fill="none" xmlns="http://www.w3.org/2000/svg">
<path d="M54.8894 68.0038H14.019C6.43773 68.0038 0.281494 61.8476 0.281494 54.2663C0.281494 47.1411 5.75369 41.2698 12.7079 40.5858C12.6509 40.0728 12.594 39.6168 12.594 39.1038C12.594 28.0454 21.6002 19.0961 32.6016 19.0961C36.7058 19.0961 40.6959 20.3501 44.002 22.6872C44.6291 23.1432 44.8001 24.0552 44.3441 24.6823C43.8881 25.3093 42.976 25.4803 42.349 25.0243C39.4989 23.0292 36.0788 21.9462 32.5447 21.9462C23.0823 21.9462 15.387 29.6414 15.387 39.1038C15.387 40.0158 15.5011 40.8708 15.6721 41.7259L15.9001 43.2649L13.962 43.3789C7.91977 43.3789 3.07462 48.2811 3.07462 54.2663C3.07462 60.2515 7.97678 65.1537 13.962 65.1537H54.8894C62.4137 65.1537 68.5129 59.0545 68.5129 51.5302C68.5129 50.6182 68.3989 49.7061 68.2279 48.7941C68.0569 48.0531 68.5699 47.2551 69.368 47.1411C70.109 47.027 70.907 47.4831 71.021 48.2811C71.249 49.3641 71.363 50.5042 71.363 51.5872C71.363 60.6505 63.9528 68.0038 54.8894 68.0038Z" fill="#FBECF5"/>
<path d="M86.0122 49.7632H45.1418C37.5605 49.7632 31.4043 43.6069 31.4043 36.0257C31.4043 28.9004 36.8765 23.0292 43.8307 22.3452C43.7737 21.8322 43.7168 21.3762 43.7168 20.8631C43.7168 9.80474 52.6661 0.855423 63.7245 0.855423C73.4148 0.855423 81.5661 7.75267 83.2762 17.158C84.2452 16.987 85.1002 16.873 86.0122 16.873C95.0756 16.873 102.486 24.2262 102.486 33.3466C102.486 42.4669 95.0756 49.7632 86.0122 49.7632ZM63.7245 3.70552C54.2621 3.70552 46.5669 11.4008 46.5669 20.8631C46.5669 21.7752 46.6808 22.6302 46.8518 23.4852L47.0799 25.0243L45.1418 25.1383C39.0996 25.1383 34.2544 30.0405 34.2544 36.0257C34.2544 42.0109 39.1566 46.9131 45.1418 46.9131H86.0122C93.5365 46.9131 99.6357 40.8138 99.6357 33.2896C99.6357 25.7653 93.5365 19.6661 86.0122 19.6661C84.9292 19.6661 83.7891 19.8371 82.4781 20.1791L80.8821 20.6351L80.7111 18.9821C79.799 10.2608 72.5028 3.70552 63.7245 3.70552Z" fill="#FBECF5"/>
</svg>
