<svg width="85" height="89" viewBox="0 0 85 89" fill="none" xmlns="http://www.w3.org/2000/svg">
<path d="M42.023 9.77884C41.2249 9.77884 40.5979 9.09481 40.5979 8.35379L40.6549 1.79856C40.6549 1.00053 41.2819 0.373505 42.0799 0.373505C42.878 0.373505 43.505 1.05753 43.505 1.79856L43.448 8.35379C43.448 9.09481 42.821 9.77884 42.023 9.77884Z" fill="#FBECF5"/>
<path d="M20.7616 16.6761C20.3056 16.6761 19.8496 16.4481 19.6216 16.0491L15.8594 10.6909C15.4034 10.0639 15.5744 9.15182 16.2015 8.6958C16.8285 8.23978 17.7405 8.4108 18.1965 9.03782L21.9587 14.396C22.4147 15.023 22.2437 15.9351 21.6166 16.3911C21.3316 16.6191 21.0466 16.6761 20.7616 16.6761Z" fill="#FBECF5"/>
<path d="M7.6509 34.7457C7.47989 34.7457 7.36589 34.7457 7.19488 34.6887L0.98166 32.5796C0.240633 32.3516 -0.15838 31.4966 0.0696283 30.7556C0.297636 30.0145 1.15266 29.6155 1.89369 29.8435L8.10691 31.9526C8.84794 32.1806 9.24695 33.0357 9.01894 33.7767C8.79093 34.4037 8.27792 34.7457 7.6509 34.7457Z" fill="#FBECF5"/>
<path d="M1.43768 59.0286C0.810653 59.0286 0.240634 58.6296 0.0696283 58.0026C-0.15838 57.2615 0.240633 56.4635 0.98166 56.2355L7.25188 54.2974C7.99291 54.0694 8.79093 54.4684 9.01894 55.2095C9.24695 55.9505 8.84794 56.7485 8.10691 56.9765L1.83669 58.9146C1.72268 59.0286 1.60868 59.0286 1.43768 59.0286Z" fill="#FBECF5"/>
<path d="M16.9421 80.4043C16.6571 80.4043 16.372 80.2903 16.087 80.1193C15.46 79.6633 15.346 78.7513 15.802 78.1243L19.7352 72.8801C20.1912 72.2531 21.1032 72.139 21.7302 72.5951C22.3573 73.0511 22.4713 73.9631 22.0153 74.5901L18.0821 79.8343C17.7971 80.2333 17.3411 80.4043 16.9421 80.4043Z" fill="#FBECF5"/>
<path d="M42.023 88.6126C41.2249 88.6126 40.5979 87.9286 40.5979 87.1876L40.6549 80.6324C40.6549 79.8343 41.2819 79.2073 42.0799 79.2073C42.878 79.2073 43.505 79.8913 43.505 80.6324L43.448 87.1876C43.448 87.9856 42.764 88.6126 42.023 88.6126Z" fill="#FBECF5"/>
<path d="M67.1042 80.4613C66.6481 80.4613 66.1921 80.2333 65.9641 79.8343L62.202 74.4761C61.746 73.8491 61.917 72.9371 62.544 72.481C63.171 72.025 64.0831 72.196 64.5391 72.8231L68.3012 78.1812C68.7572 78.8083 68.5862 79.7203 67.9592 80.1763C67.6742 80.3473 67.3892 80.4613 67.1042 80.4613Z" fill="#FBECF5"/>
<path d="M82.6658 59.1426C82.4948 59.1426 82.3808 59.1426 82.2098 59.0856L75.9966 56.9765C75.2555 56.7485 74.8565 55.8935 75.0845 55.1524C75.3125 54.4114 76.1676 54.0124 76.9086 54.2404L83.1218 56.3495C83.8628 56.5775 84.2618 57.4325 84.0338 58.1735C83.8058 58.7436 83.2358 59.1426 82.6658 59.1426Z" fill="#FBECF5"/>
<path d="M76.3954 34.6887C75.7684 34.6887 75.1984 34.2897 75.0274 33.6627C74.7994 32.9217 75.1984 32.1236 75.9394 31.8956L82.2097 29.9576C82.9507 29.7296 83.7487 30.1286 83.9767 30.8696C84.2047 31.6106 83.8057 32.4087 83.0647 32.6367L76.7945 34.5747C76.6805 34.6887 76.5665 34.6887 76.3954 34.6887Z" fill="#FBECF5"/>
<path d="M63.2848 16.6191C62.9998 16.6191 62.7148 16.5051 62.4298 16.334C61.8028 15.878 61.6888 14.966 62.1448 14.339L66.0779 9.09479C66.534 8.46777 67.446 8.35377 68.073 8.80978C68.7 9.2658 68.814 10.1778 68.358 10.8049L64.4249 16.049C64.1399 16.4481 63.6839 16.6191 63.2848 16.6191Z" fill="#FBECF5"/>
<path d="M42.0803 72.1391C26.8608 72.1391 14.4343 59.7126 14.4343 44.4931C14.4343 29.2735 26.8608 16.8471 42.0803 16.8471C57.2998 16.8471 69.7263 29.2735 69.7263 44.4931C69.7263 59.7126 57.2998 72.1391 42.0803 72.1391ZM42.0803 19.6972C28.3998 19.6972 17.2844 30.8126 17.2844 44.4931C17.2844 58.1735 28.3998 69.289 42.0803 69.289C55.7608 69.289 66.8762 58.1735 66.8762 44.4931C66.8762 30.8126 55.7038 19.6972 42.0803 19.6972Z" fill="#FBECF5"/>
<path d="M42.0802 52.0743C37.748 52.0743 34.2139 49.2812 34.2139 45.8041C34.2139 45.0061 34.8409 44.3791 35.6389 44.3791C36.4369 44.3791 37.064 45.0061 37.064 45.8041C37.064 47.6852 39.3441 49.2242 42.0802 49.2242C44.8162 49.2242 47.0963 47.6282 47.0963 45.8041C47.0963 45.0061 47.7234 44.3791 48.5214 44.3791C49.3194 44.3791 49.9464 45.0061 49.9464 45.8041C49.9464 49.2812 46.4123 52.0743 42.0802 52.0743Z" fill="#FBECF5"/>
<path d="M35.1827 35.6578C34.3847 35.6578 33.7576 35.0307 33.7576 34.2327C33.7576 33.6057 33.2446 33.0927 32.6176 33.0927C31.9906 33.0927 31.4775 33.6057 31.4775 34.2327C31.4775 35.0307 30.8505 35.6578 30.0525 35.6578C29.2545 35.6578 28.6274 35.0307 28.6274 34.2327C28.6274 32.0666 30.3945 30.2426 32.6176 30.2426C34.8407 30.2426 36.6077 32.0096 36.6077 34.2327C36.6077 35.0307 35.9807 35.6578 35.1827 35.6578Z" fill="#FBECF5"/>
<path d="M53.9937 35.6577C53.1957 35.6577 52.5686 35.0307 52.5686 34.2327C52.5686 33.6057 52.0556 33.0926 51.4286 33.0926C50.8016 33.0926 50.2886 33.6057 50.2886 34.2327C50.2886 35.0307 49.6616 35.6577 48.8635 35.6577C48.0655 35.6577 47.4385 35.0307 47.4385 34.2327C47.4385 32.0666 49.2055 30.2425 51.4286 30.2425C53.5947 30.2425 55.4187 32.0096 55.4187 34.2327C55.4187 35.0307 54.7917 35.6577 53.9937 35.6577Z" fill="#FBECF5"/>
</svg>
